<?xml version="1.0" standalone="no"?>
<!DOCTYPE svg PUBLIC "-//W3C//DTD SVG 20010904//EN"
 "http://www.w3.org/TR/2001/REC-SVG-20010904/DTD/svg10.dtd">
<svg version="1.0" xmlns="http://www.w3.org/2000/svg"
 width="550.000000pt" height="469.000000pt" viewBox="0 0 550.000000 469.000000"
 preserveAspectRatio="xMidYMid meet">

<g transform="translate(0.000000,469.000000) scale(0.100000,-0.100000)"
fill="#000000" stroke="none">
<path d="M2612 4670 c-150 -40 -283 -148 -346 -278 -18 -39 -36 -80 -39 -92
-5 -20 -5 -20 -1077 -20 l-1072 0 -33 -33 c-19 -19 -37 -46 -41 -61 -9 -37 15
-94 49 -120 28 -21 30 -21 1094 -26 l1065 -5 18 -57 c55 -179 215 -327 398
-369 69 -16 204 -13 270 6 179 52 317 188 377 373 l17 52 1049 0 c1156 0 1099
-3 1139 62 24 40 25 69 4 114 -32 68 37 64 -1138 64 l-1064 0 -12 38 c-34 105
-140 236 -241 295 -122 71 -284 94 -417 57z m275 -253 c108 -56 168 -154 168
-277 -1 -123 -59 -216 -170 -271 -155 -76 -331 -16 -407 138 -56 115 -41 242
41 336 92 104 247 135 368 74z"/>
<path d="M415 2885 c-277 -75 -450 -335 -407 -611 69 -441 609 -618 925 -303
63 63 92 111 145 242 l12 27 2162 0 c2126 0 2164 0 2195 20 66 40 66 145 0
194 l-28 21 -2170 3 -2169 2 -6 28 c-18 71 -71 160 -139 228 -111 113 -235
165 -390 163 -44 0 -102 -6 -130 -14z m239 -241 c65 -22 148 -100 176 -166 31
-70 32 -174 3 -239 -28 -63 -86 -125 -147 -157 -43 -23 -64 -27 -136 -27 -100
0 -154 21 -218 86 -159 158 -97 429 115 505 52 18 150 17 207 -2z"/>
<path d="M4880 1090 c-116 -15 -232 -72 -315 -155 -52 -53 -112 -148 -132
-211 l-17 -54 -2160 0 c-2150 0 -2161 0 -2194 -20 -45 -28 -68 -82 -53 -130 6
-20 22 -47 37 -61 l26 -24 2172 -3 2173 -2 12 -43 c65 -220 291 -386 527 -387
67 0 192 33 257 67 67 36 184 153 220 220 34 65 67 190 67 257 -1 329 -296
589 -620 546z m182 -256 c64 -21 131 -83 165 -152 23 -47 28 -70 28 -132 -1
-363 -510 -423 -601 -71 -31 125 25 265 133 328 92 54 171 62 275 27z"/>
</g>
</svg>
