<?xml version="1.0" standalone="no"?>
<!DOCTYPE svg PUBLIC "-//W3C//DTD SVG 20010904//EN"
 "http://www.w3.org/TR/2001/REC-SVG-20010904/DTD/svg10.dtd">
<svg version="1.0" xmlns="http://www.w3.org/2000/svg"
 width="550.000000pt" height="321.000000pt" viewBox="0 0 550.000000 321.000000"
 preserveAspectRatio="xMidYMid meet">

<g transform="translate(0.000000,321.000000) scale(0.100000,-0.100000)"
fill="#000000" stroke="none">
<path d="M365 3143 c-122 -44 -223 -135 -278 -250 -31 -65 -32 -73 -32 -188 1
-214 -121 -73 1258 -1453 656 -656 1212 -1206 1236 -1222 l44 -30 199 0 c162
0 205 3 231 16 41 21 2410 2385 2448 2443 l29 45 0 203 c0 202 0 204 -26 244
-42 67 -110 126 -191 166 -66 32 -86 37 -165 41 -112 6 -195 -15 -276 -68 -35
-23 -437 -418 -1052 -1034 l-995 -996 -1015 1015 c-980 979 -1017 1015 -1085
1046 -62 28 -83 33 -175 36 -83 3 -116 0 -155 -14z"/>
</g>
</svg>
